<?xml version="1.0" encoding="UTF-8"?>
<svg width="19px" height="14px" viewBox="0 0 19 14" version="1.1" xmlns="http://www.w3.org/2000/svg" xmlns:xlink="http://www.w3.org/1999/xlink">
    <!-- Generator: Sketch 58 (84663) - https://sketch.com -->
    <title>Flèche retour Copy</title>
    <desc>Created with Sketch.</desc>
    <g id="Page-3" stroke="none" stroke-width="1" fill="none" fill-rule="evenodd">
        <g id="HOME_v1-Copy-4" transform="translate(-1003.000000, -983.000000)" fill="#3C3C3C">
            <g id="Group-4" transform="translate(728.000000, 796.000000)">
                <path d="M278.236404,193.119331 L293.049813,193.119331 C293.573773,193.119331 294,193.513277 294,194.00036 C294,194.486185 293.573773,194.88139 293.049813,194.88139 L278.236404,194.88139 L283.272393,199.550843 C283.610388,199.922134 283.560164,200.478441 283.159728,200.791836 C282.801372,201.072506 282.277412,201.06873 281.923128,200.784284 L275.271821,194.617081 C274.909393,194.273479 274.909393,193.725983 275.271821,193.38364 L281.923128,187.216437 C282.319491,186.896749 282.919466,186.935766 283.262891,187.303281 C283.571023,187.631779 283.575095,188.117604 283.272393,188.449878 L278.226902,193.119331 L278.236404,193.119331 Z" id="Flèche-retour-Copy" transform="translate(284.500000, 194.000000) scale(-1, 1) translate(-284.500000, -194.000000) "></path>
            </g>
        </g>
    </g>
</svg>